<svg width="98" height="48" viewBox="0 0 98 48" fill="none" xmlns="http://www.w3.org/2000/svg">
<path d="M54.5 9.33333C52.9627 9.42266 51.1978 10.2791 50.1484 11.3698C49.2004 12.3618 48.4525 13.8351 48.7578 15.2604C50.4285 15.3044 52.1054 14.4258 53.1094 13.3151C54.0467 12.2764 54.7573 10.8267 54.5 9.33333ZM54.5911 15.2578C52.1791 15.2578 51.1707 16.7396 49.5 16.7396C47.7813 16.7396 46.2102 15.3516 44.1302 15.3516C41.3009 15.3529 37 17.9738 37 24.1484C37 29.7658 42.0902 36 44.9635 36C46.7089 36.0173 47.132 34.9026 49.5 34.8906C51.8707 34.8733 52.3822 36.0147 54.1302 36C56.0982 35.9853 57.6351 33.8227 58.7578 32.1094C59.5631 30.8827 59.8942 30.2565 60.5182 28.8698C55.8876 27.6965 54.9662 20.2289 60.5182 18.6849C59.4702 16.8969 56.4111 15.2578 54.5911 15.2578Z" fill="black"/>
<rect x="0.5" y="0.5" width="97" height="47" rx="3.5" stroke="#E6E6E6"/>
</svg>
