<svg width="60" height="60" viewBox="0 0 60 60" fill="none" xmlns="http://www.w3.org/2000/svg">
<path d="M58.4256 46.2847L46.2814 38.1859C44.7402 37.1664 42.6744 37.5018 41.535 38.9567L37.9975 43.5051C37.5429 44.1045 36.7165 44.2784 36.0588 43.913L35.3859 43.5421C33.1553 42.3262 30.3797 40.8125 24.7875 35.2183C19.1954 29.6241 17.6786 26.8465 16.4627 24.6199L16.0938 23.947C15.7234 23.2895 15.894 22.4595 16.4937 22.0013L21.0389 18.4649C22.4932 17.3254 22.8292 15.2601 21.8108 13.7185L13.712 1.57431C12.6684 0.00445941 10.5746 -0.466799 8.95891 0.504424L3.88064 3.55495C2.28501 4.49301 1.11437 6.01224 0.614169 7.79428C-1.21451 14.4573 0.161188 25.9566 17.1007 42.8981C30.5758 56.3721 40.6073 59.9956 47.5023 59.9956C49.0891 60.0024 50.6697 59.7959 52.2016 59.3817C53.984 58.8821 55.5035 57.7114 56.4409 56.1153L59.4945 51.04C60.4671 49.424 59.9961 47.3289 58.4256 46.2847ZM57.7717 50.0141L54.7251 55.0924C54.052 56.2444 52.9591 57.0914 51.6755 57.456C45.5244 59.1448 34.7781 57.746 18.5154 41.4834C2.25279 25.2208 0.854133 14.4753 2.54291 8.32331C2.90801 7.03818 3.75609 5.94393 4.90951 5.26974L9.98778 2.22319C10.6888 1.80138 11.5976 2.00584 12.0504 2.68707L16.4498 9.29207L20.1423 14.8302C20.5845 15.4989 20.4392 16.3952 19.8084 16.89L15.2621 20.4264C13.8785 21.4843 13.4834 23.3985 14.3353 24.9178L14.6963 25.5737C15.9741 27.9173 17.5628 30.8329 23.363 36.6321C29.1631 42.4312 32.0778 44.02 34.4203 45.2978L35.0772 45.6597C36.5963 46.5114 38.5106 46.1164 39.5686 44.7329L43.105 40.1866C43.5999 39.5561 44.4958 39.4109 45.1647 39.8526L57.3079 47.9514C57.9896 48.4039 58.194 49.3132 57.7717 50.0141Z" fill="black"/>
<path d="M33.9985 10.0032C43.3816 10.0136 50.9855 17.6176 50.996 27.0007C50.996 27.5529 51.4436 28.0005 51.9958 28.0005C52.548 28.0005 52.9956 27.5529 52.9956 27.0007C52.984 16.5136 44.4856 8.01502 33.9985 8.00354C33.4462 8.00354 32.9987 8.45113 32.9987 9.00335C32.9987 9.55558 33.4462 10.0032 33.9985 10.0032Z" fill="black"/>
<path d="M33.9985 16.0023C40.0698 16.0094 44.9897 20.9294 44.9969 27.0007C44.9969 27.5529 45.4446 28.0005 45.9967 28.0005C46.5489 28.0005 46.9965 27.5529 46.9965 27.0007C46.9882 19.8254 41.1736 14.0109 33.9985 14.0027C33.4462 14.0027 32.9987 14.4502 32.9987 15.0025C32.9987 15.5547 33.4462 16.0023 33.9985 16.0023Z" fill="black"/>
<path d="M33.9985 22.0013C36.7581 22.0046 38.9944 24.2409 38.9978 27.0006C38.9978 27.5529 39.4455 28.0004 39.9976 28.0004C40.5497 28.0004 40.9974 27.5529 40.9974 27.0006C40.9929 23.1371 37.862 20.006 33.9985 20.0017C33.4462 20.0017 32.9987 20.4493 32.9987 21.0015C32.9987 21.5537 33.4462 22.0013 33.9985 22.0013Z" fill="black"/>
</svg>
