<svg width="98" height="48" viewBox="0 0 98 48" fill="none" xmlns="http://www.w3.org/2000/svg">
<path d="M61.9427 21.5659L50.5218 21.5653C50.0174 21.5653 49.6086 21.974 49.6086 22.4784V26.1269C49.6086 26.6311 50.0174 27.0399 50.5217 27.0399H56.9533C56.249 28.8677 54.9346 30.3983 53.2575 31.3709L55.9999 36.1183C60.3991 33.574 63 29.1099 63 24.1127C63 23.4011 62.9475 22.8925 62.8426 22.3197C62.7629 21.8846 62.3851 21.5659 61.9427 21.5659Z" fill="#167EE6"/>
<path d="M49.0003 32.5219C45.8528 32.5219 43.1051 30.8021 41.6293 28.2574L36.8821 30.9936C39.2979 35.1806 43.8235 38.0001 49.0003 38.0001C51.5398 38.0001 53.9361 37.3164 56.0003 36.1248V36.1183L53.2579 31.3708C52.0035 32.0984 50.5518 32.5219 49.0003 32.5219Z" fill="#12B347"/>
<path d="M56 36.1248V36.1183L53.2576 31.3708C52.0032 32.0983 50.5517 32.5218 49 32.5218V38.0001C51.5395 38.0001 53.9359 37.3164 56 36.1248Z" fill="#0F993E"/>
<path d="M40.4783 24.0001C40.4783 22.4486 40.9017 20.9972 41.6291 19.7428L36.8819 17.0065C35.6837 19.0643 35 21.454 35 24.0001C35 26.5461 35.6837 28.9358 36.8819 30.9936L41.6291 28.2573C40.9017 27.003 40.4783 25.5515 40.4783 24.0001Z" fill="#FFD500"/>
<path d="M49.0003 15.4783C51.0528 15.4783 52.9381 16.2076 54.4107 17.4207C54.774 17.72 55.302 17.6984 55.6347 17.3656L58.2198 14.7805C58.5974 14.403 58.5705 13.7849 58.1672 13.435C55.6999 11.2946 52.4898 10 49.0003 10C43.8235 10 39.2979 12.8195 36.8821 17.0065L41.6293 19.7428C43.1051 17.198 45.8528 15.4783 49.0003 15.4783Z" fill="#FF4B26"/>
<path d="M54.4104 17.4207C54.7737 17.72 55.3017 17.6984 55.6345 17.3656L58.2195 14.7805C58.5971 14.403 58.5702 13.7849 58.1669 13.435C55.6996 11.2946 52.4895 10 49 10V15.4783C51.0524 15.4783 52.9378 16.2076 54.4104 17.4207Z" fill="#D93F21"/>
<rect x="0.5" y="0.5" width="97" height="47" rx="3.5" stroke="#E6E6E6"/>
</svg>
