<svg width="60" height="24" viewBox="0 0 60 24" fill="none" xmlns="http://www.w3.org/2000/svg">
<path d="M8.5625 23.375C13.7188 23.375 16.8906 20.8438 16.8906 16.8438V16.8281C16.8906 13.3906 14.9531 11.5156 10.3281 10.5L7.82812 9.95312C4.89062 9.3125 3.53125 8.15625 3.53125 6.3125V6.29688C3.53125 4.125 5.5 2.6875 8.51562 2.67188C11.375 2.67188 13.2969 4.03125 13.6406 6.32812L13.6719 6.54688H16.4844L16.4688 6.3125C16.2188 2.625 13 0.078125 8.59375 0.078125C3.95312 0.078125 0.671875 2.67188 0.65625 6.375V6.39062C0.65625 9.6875 2.71875 11.6719 7.125 12.6406L9.625 13.1875C12.7188 13.875 14.0156 14.9844 14.0156 16.9688V16.9844C14.0156 19.3125 11.9688 20.7812 8.71875 20.7812C5.45312 20.7812 3.26562 19.3906 2.9375 17.125L2.90625 16.9062H0.09375L0.109375 17.125C0.390625 20.9844 3.6875 23.375 8.5625 23.375ZM29.7188 23.375C36.1094 23.375 40.0938 18.8906 40.0938 11.7344V11.7031C40.0938 4.5625 36.0938 0.078125 29.7188 0.078125C23.3281 0.078125 19.3125 4.5625 19.3125 11.7031V11.7344C19.3125 18.8906 23.3125 23.375 29.7188 23.375ZM29.7188 20.7812C25.0938 20.7812 22.1875 17.2812 22.1875 11.7344V11.7031C22.1875 6.15625 25.1094 2.67188 29.7188 2.67188C34.3125 2.67188 37.2188 6.17188 37.2188 11.7031V11.7344C37.2188 17.2344 34.3594 20.7812 29.7188 20.7812ZM50.9688 23.375C56.125 23.375 59.2969 20.8438 59.2969 16.8438V16.8281C59.2969 13.3906 57.3594 11.5156 52.7344 10.5L50.2344 9.95312C47.2969 9.3125 45.9375 8.15625 45.9375 6.3125V6.29688C45.9375 4.125 47.9062 2.6875 50.9219 2.67188C53.7812 2.67188 55.7031 4.03125 56.0469 6.32812L56.0781 6.54688H58.8906L58.875 6.3125C58.625 2.625 55.4062 0.078125 51 0.078125C46.3594 0.078125 43.0781 2.67188 43.0625 6.375V6.39062C43.0625 9.6875 45.125 11.6719 49.5312 12.6406L52.0312 13.1875C55.125 13.875 56.4219 14.9844 56.4219 16.9688V16.9844C56.4219 19.3125 54.375 20.7812 51.125 20.7812C47.8594 20.7812 45.6719 19.3906 45.3438 17.125L45.3125 16.9062H42.5L42.5156 17.125C42.7969 20.9844 46.0938 23.375 50.9688 23.375Z" fill="#FF7272"/>
</svg>
