<svg width="98" height="48" viewBox="0 0 98 48" fill="none" xmlns="http://www.w3.org/2000/svg">
<g clip-path="url(#clip0)">
<path d="M64.8304 31.3598C64.7916 31.2763 64.7555 31.207 64.7219 31.1515C64.1667 30.1516 63.1058 28.9243 61.5397 27.4691L61.5066 27.4358L61.49 27.4195L61.4733 27.4027H61.4564C60.7457 26.7252 60.2956 26.2696 60.1071 26.0363C59.7622 25.592 59.6849 25.1423 59.8734 24.6866C60.0066 24.3423 60.5068 23.6151 61.3729 22.5042C61.8285 21.9155 62.1893 21.4436 62.4558 21.0881C64.3775 18.5333 65.2107 16.9007 64.9551 16.1897L64.8558 16.0236C64.7891 15.9236 64.617 15.8321 64.3396 15.7486C64.0616 15.6654 63.7062 15.6516 63.273 15.7071L58.4747 15.7402C58.397 15.7127 58.286 15.7152 58.1414 15.7486C57.9969 15.782 57.9247 15.7988 57.9247 15.7988L57.8412 15.8405L57.7749 15.8906C57.7193 15.9238 57.6582 15.9821 57.5915 16.0654C57.5252 16.1484 57.4697 16.2459 57.4253 16.3569C56.9029 17.7009 56.309 18.9505 55.6424 20.1056C55.2314 20.7944 54.8539 21.3913 54.5092 21.8967C54.165 22.402 53.8762 22.7742 53.6431 23.0128C53.4097 23.2517 53.199 23.443 53.0098 23.5876C52.8209 23.7322 52.6767 23.7933 52.5769 23.7709C52.4768 23.7486 52.3826 23.7264 52.2933 23.7042C52.1379 23.6042 52.0129 23.4682 51.9187 23.296C51.824 23.1239 51.7603 22.9072 51.727 22.6462C51.6938 22.385 51.6742 22.1603 51.6686 21.9714C51.6634 21.7828 51.6658 21.5159 51.6771 21.1716C51.6886 20.8271 51.6938 20.594 51.6938 20.4718C51.6938 20.0497 51.7021 19.5915 51.7186 19.0973C51.7354 18.603 51.749 18.2114 51.7604 17.9229C51.7717 17.6341 51.7769 17.3285 51.7769 17.0064C51.7769 16.6842 51.7573 16.4316 51.7186 16.2483C51.6803 16.0651 51.6215 15.8874 51.5441 15.7151C51.4662 15.5429 51.3522 15.4098 51.2025 15.3152C51.0526 15.2208 50.8662 15.1459 50.6444 15.0902C50.0557 14.957 49.306 14.8849 48.395 14.8737C46.3291 14.8515 45.0017 14.9849 44.413 15.2737C44.1797 15.3957 43.9687 15.5625 43.7799 15.7734C43.58 16.0178 43.5521 16.1512 43.6964 16.1732C44.363 16.273 44.8348 16.5119 45.1126 16.8895L45.2126 17.0896C45.2905 17.234 45.3682 17.4896 45.446 17.856C45.5237 18.2225 45.5738 18.6279 45.5959 19.072C45.6513 19.883 45.6513 20.5772 45.5959 21.1547C45.5402 21.7324 45.4877 22.1821 45.4376 22.5043C45.3875 22.8264 45.3125 23.0874 45.2126 23.2873C45.1126 23.4872 45.046 23.6094 45.0126 23.6538C44.9793 23.6981 44.9515 23.7261 44.9294 23.737C44.7851 23.7924 44.6349 23.8205 44.4795 23.8205C44.3239 23.8205 44.1351 23.7427 43.913 23.5871C43.691 23.4315 43.4606 23.2178 43.2217 22.9457C42.9829 22.6734 42.7135 22.293 42.4135 21.8043C42.1137 21.3157 41.8027 20.7381 41.4805 20.0717L41.214 19.5884C41.0474 19.2775 40.8198 18.8247 40.531 18.2306C40.242 17.6363 39.9866 17.0613 39.7646 16.506C39.6758 16.2727 39.5425 16.0951 39.3648 15.9729L39.2814 15.9228C39.2259 15.8785 39.137 15.8314 39.0149 15.7812C38.8926 15.7311 38.7651 15.6951 38.6316 15.673L34.0665 15.7061C33.6 15.7061 33.2835 15.8118 33.1168 16.0229L33.0501 16.1227C33.0168 16.1784 33 16.2672 33 16.3894C33 16.5116 33.0333 16.6616 33.1 16.8392C33.7664 18.4055 34.4912 19.916 35.2742 21.3711C36.0572 22.8261 36.7376 23.9982 37.3151 24.8862C37.8926 25.775 38.4813 26.6137 39.0812 27.4021C39.681 28.1908 40.0781 28.6962 40.2723 28.9182C40.4668 29.1407 40.6196 29.307 40.7307 29.4181L41.1473 29.8179C41.4138 30.0845 41.8053 30.4038 42.3218 30.7758C42.8384 31.1481 43.4104 31.5146 44.0379 31.8758C44.6656 32.2365 45.3958 32.5309 46.229 32.7585C47.062 32.9864 47.8728 33.0779 48.6615 33.0337H50.5775C50.9661 33.0002 51.2605 32.878 51.4606 32.6671L51.5269 32.5836C51.5715 32.5173 51.6132 32.4143 51.6518 32.2757C51.6907 32.1369 51.7101 31.9839 51.7101 31.8175C51.6987 31.34 51.7351 30.9096 51.8182 30.5265C51.9012 30.1434 51.9959 29.8546 52.1017 29.6601C52.2075 29.4658 52.3269 29.3018 52.4598 29.1689C52.593 29.0357 52.6879 28.9549 52.7435 28.9272C52.7989 28.8992 52.843 28.8803 52.8764 28.8689C53.1429 28.7801 53.4567 28.8661 53.818 29.1273C54.179 29.3884 54.5177 29.7107 54.8344 30.0937C55.151 30.4771 55.5314 30.9073 55.9756 31.3848C56.4201 31.8625 56.8087 32.2176 57.1418 32.4512L57.4749 32.6511C57.6974 32.7845 57.9862 32.9067 58.3417 33.0178C58.6966 33.1287 59.0075 33.1565 59.2745 33.101L63.5395 33.0345C63.9614 33.0345 64.2896 32.9647 64.5225 32.8261C64.7558 32.6872 64.8944 32.5343 64.9391 32.3679C64.9837 32.2014 64.9861 32.0124 64.9475 31.8011C64.908 31.5904 64.8691 31.4431 64.8304 31.3598Z" fill="#167EE6"/>
</g>
<rect x="0.5" y="0.5" width="97" height="47" rx="3.5" stroke="#E6E6E6"/>
<defs>
<clipPath id="clip0">
<rect width="32" height="32" fill="white" transform="translate(33 8)"/>
</clipPath>
</defs>
</svg>
